<?xml version="1.0" standalone="no"?>
<!DOCTYPE svg PUBLIC "-//W3C//DTD SVG 20010904//EN"
        "http://www.w3.org/TR/2001/REC-SVG-20010904/DTD/svg10.dtd">
<svg version="1.0" xmlns="http://www.w3.org/2000/svg"
     width="512.000000pt" height="512.000000pt" viewBox="0 0 512.000000 512.000000"
     preserveAspectRatio="xMidYMid meet">
    <metadata>
        Created by potrace 1.11, written by Peter Selinger 2001-2013
    </metadata>
    <g transform="translate(0.000000,512.000000) scale(0.100000,-0.100000)"
       fill="#000000" stroke="none">
        <path d="M1920 3356 l0 -1125 -74 35 c-263 121 -583 97 -822 -62 -382 -254
-495 -765 -257 -1158 77 -127 232 -262 376 -329 113 -53 208 -72 357 -71 116
1 148 5 225 28 298 90 518 317 597 616 l22 85 3 1128 4 1127 424 0 425 0 0
425 0 425 -640 0 -640 0 0 -1124z"/>
        <path d="M3630 2880 l0 -320 -320 0 -320 0 0 -215 0 -215 320 0 320 0 0 -320
0 -320 210 0 210 0 0 320 0 320 320 0 320 0 0 215 0 215 -320 0 -320 0 0 320
0 320 -210 0 -210 0 0 -320z"/>
    </g>
</svg>
